<svg width="50" height="50" viewBox="0 0 50 50" fill="none" xmlns="http://www.w3.org/2000/svg">
<circle cx="25" cy="25" r="24.5" fill="#1DC0AD" fill-opacity="0.1" stroke="#1DC0AD"/>
<g clip-path="url(#clip0_2_52)">
<path d="M29.5833 16.5975C28.645 16.6121 27.727 16.874 26.9223 17.3569C26.1176 17.8397 25.4545 18.5264 25 19.3475C24.5455 18.5264 23.8824 17.8397 23.0777 17.3569C22.273 16.874 21.355 16.6121 20.4167 16.5975C18.9208 16.6625 17.5114 17.3169 16.4965 18.4177C15.4816 19.5185 14.9435 20.9763 15 22.4725C15 26.2617 18.9883 30.4 22.3333 33.2058C23.0802 33.8334 24.0245 34.1775 25 34.1775C25.9755 34.1775 26.9198 33.8334 27.6667 33.2058C31.0117 30.4 35 26.2617 35 22.4725C35.0565 20.9763 34.5184 19.5185 33.5035 18.4177C32.4886 17.3169 31.0792 16.6625 29.5833 16.5975ZM26.5958 31.9308C26.1492 32.307 25.584 32.5133 25 32.5133C24.416 32.5133 23.8508 32.307 23.4042 31.9308C19.1225 28.3383 16.6667 24.8917 16.6667 22.4725C16.6097 21.4181 16.972 20.3839 17.6745 19.5956C18.377 18.8072 19.3627 18.3286 20.4167 18.2642C21.4706 18.3286 22.4564 18.8072 23.1589 19.5956C23.8614 20.3839 24.2236 21.4181 24.1667 22.4725C24.1667 22.6935 24.2545 22.9055 24.4107 23.0618C24.567 23.218 24.779 23.3058 25 23.3058C25.221 23.3058 25.433 23.218 25.5893 23.0618C25.7455 22.9055 25.8333 22.6935 25.8333 22.4725C25.7764 21.4181 26.1386 20.3839 26.8411 19.5956C27.5436 18.8072 28.5294 18.3286 29.5833 18.2642C30.6373 18.3286 31.623 18.8072 32.3255 19.5956C33.028 20.3839 33.3903 21.4181 33.3333 22.4725C33.3333 24.8917 30.8775 28.3383 26.5958 31.9275V31.9308Z" fill="#1DC0AD"/>
</g>
<defs>
<clipPath id="clip0_2_52">
<rect width="20" height="20" fill="white" transform="translate(15 15)"/>
</clipPath>
</defs>
</svg>
