<svg width="50" height="50" viewBox="0 0 50 50" fill="none" xmlns="http://www.w3.org/2000/svg">
<circle cx="25" cy="25" r="24.5" fill="#1DC0AD" fill-opacity="0.1" stroke="#1DC0AD"/>
<g clip-path="url(#clip0_2_53)">
<path d="M33.9775 21.4342C33.5867 20.9838 33.1038 20.6227 32.5613 20.3753C32.0189 20.1279 31.4296 19.9999 30.8333 20H27.5092L27.7892 18.2992C27.8882 17.7002 27.7687 17.0856 27.4524 16.5674C27.1361 16.0493 26.644 15.6621 26.066 15.4765C25.488 15.2909 24.8625 15.3192 24.3036 15.5564C23.7448 15.7935 23.2898 16.2237 23.0217 16.7683L21.4267 20H19.1667C18.062 20.0013 17.003 20.4407 16.2218 21.2219C15.4407 22.003 15.0013 23.062 15 24.1667L15 28.3333C15.0013 29.438 15.4407 30.497 16.2218 31.2782C17.003 32.0593 18.062 32.4987 19.1667 32.5H30.25C31.2529 32.4959 32.221 32.1319 32.9782 31.4743C33.7353 30.8167 34.2313 29.9091 34.3758 28.9167L34.9633 24.75C35.0461 24.1589 35.0009 23.557 34.8308 22.9849C34.6607 22.4129 34.3697 21.884 33.9775 21.4342ZM16.6667 28.3333V24.1667C16.6667 23.5036 16.9301 22.8677 17.3989 22.3989C17.8677 21.9301 18.5036 21.6667 19.1667 21.6667H20.8333V30.8333H19.1667C18.5036 30.8333 17.8677 30.57 17.3989 30.1011C16.9301 29.6323 16.6667 28.9964 16.6667 28.3333ZM33.3092 24.5158L32.7208 28.6825C32.6348 29.2775 32.3381 29.8219 31.8847 30.2166C31.4312 30.6113 30.8512 30.8301 30.25 30.8333H22.5V21.445C22.5785 21.3766 22.6435 21.294 22.6917 21.2017L24.5158 17.5058C24.5842 17.3824 24.681 17.277 24.798 17.1983C24.9151 17.1196 25.0492 17.0697 25.1892 17.0529C25.3293 17.036 25.4714 17.0527 25.6038 17.1014C25.7362 17.1502 25.8551 17.2297 25.9508 17.3333C26.0327 17.4285 26.0926 17.5406 26.1261 17.6616C26.1597 17.7826 26.1661 17.9096 26.145 18.0333L25.705 20.7C25.6857 20.8192 25.6925 20.9411 25.7249 21.0573C25.7574 21.1736 25.8147 21.2814 25.8929 21.3734C25.9711 21.4653 26.0684 21.5391 26.178 21.5898C26.2875 21.6404 26.4068 21.6667 26.5275 21.6667H30.8333C31.1912 21.6666 31.5448 21.7434 31.8705 21.8918C32.1961 22.0402 32.486 22.2568 32.7207 22.5269C32.9554 22.797 33.1294 23.1143 33.231 23.4574C33.3325 23.8006 33.3591 24.1615 33.3092 24.5158Z" fill="#1DC0AD"/>
</g>
<defs>
<clipPath id="clip0_2_53">
<rect width="20" height="20" fill="white" transform="translate(15 15)"/>
</clipPath>
</defs>
</svg>
